<svg width="32" height="32" viewBox="0 0 32 32" fill="none" xmlns="http://www.w3.org/2000/svg">
<g clip-path="url(#clip0_828_8588)">
<rect width="32" height="32" fill="#089E5F"/>
<g filter="url(#filter0_d_828_8588)">
<path fill-rule="evenodd" clip-rule="evenodd" d="M4 9.7911C4 9.7911 4.88867 10.2489 5.36299 10.9233C5.41396 10.9967 5.46036 11.0711 5.49999 11.1489C5.63808 11.4167 6.3581 12.8422 7.25357 14.6178L7.2604 14.6311C9.02981 18.1378 11.4808 23 11.4808 23H14.8826L8.12302 9.7911H4Z" fill="white"/>
<path fill-rule="evenodd" clip-rule="evenodd" d="M25.1887 11.7917L24.651 14.1296C24.651 14.1296 27.2264 12.2407 26.0849 9C22.0472 10.2407 22.9576 13.8287 22.7924 14.1667C22.6274 14.5046 19.8113 19.4629 19.8113 19.4629C19.8113 19.4629 18.3844 17.3796 18.3844 15.75C18.3844 14.3333 21.0943 9.7911 21.0943 9.7911H20.066L17.2523 14.5764L14.8022 9.7911H10.6792C10.6792 9.7911 11.5679 10.2489 12.0423 10.9233C12.0932 10.9967 12.1396 11.0711 12.1792 11.1489C12.3173 11.4167 13.0374 12.8422 13.9328 14.6178L13.9396 14.6311C15.709 18.1378 18.16 23 18.16 23H21.5619C21.5619 23 20.8821 21.8195 20.8821 20.9167C20.8821 19.2222 25.1887 11.7917 25.1887 11.7917Z" fill="white"/>
<path fill-rule="evenodd" clip-rule="evenodd" d="M22.8915 16.9306C22.8915 16.9306 25.7925 18.3333 27 15.8796C24.4906 14.3703 22.8915 16.9306 22.8915 16.9306Z" fill="white"/>
</g>
</g>
<defs>
<filter id="filter0_d_828_8588" x="-165.6" y="-160.6" width="362.2" height="353.2" filterUnits="userSpaceOnUse" color-interpolation-filters="sRGB">
<feFlood flood-opacity="0" result="BackgroundImageFix"/>
<feColorMatrix in="SourceAlpha" type="matrix" values="0 0 0 0 0 0 0 0 0 0 0 0 0 0 0 0 0 0 127 0" result="hardAlpha"/>
<feOffset/>
<feGaussianBlur stdDeviation="84.8"/>
<feComposite in2="hardAlpha" operator="out"/>
<feColorMatrix type="matrix" values="0 0 0 0 0 0 0 0 0 0 0 0 0 0 0 0 0 0 0.1 0"/>
<feBlend mode="normal" in2="BackgroundImageFix" result="effect1_dropShadow_828_8588"/>
<feBlend mode="normal" in="SourceGraphic" in2="effect1_dropShadow_828_8588" result="shape"/>
</filter>
<clipPath id="clip0_828_8588">
<rect width="32" height="32" fill="white"/>
</clipPath>
</defs>
</svg>
