<svg xmlns="http://www.w3.org/2000/svg" width="36" height="10" viewBox="0 0 36 10" fill="none">
  <g clip-path="url(#clip0_350_13378)">
    <mask id="mask0_350_13378" style="mask-type:luminance" maskUnits="userSpaceOnUse" x="0" y="0" width="36" height="10">
      <path d="M36 0H0V10H36V0Z" fill="white"/>
    </mask>
    <g mask="url(#mask0_350_13378)">
      <path d="M25.356 3.18871C24.8397 3.18871 24.3772 3.43552 24.1552 3.80741C23.9651 3.41691 23.5581 3.18871 23.109 3.18871C22.6718 3.18871 22.3152 3.41185 22.1184 3.76344V3.27494H21.5819V6.58638H22.1302V4.72866C22.1302 4.10996 22.5002 3.7026 23.035 3.7026C23.5463 3.7026 23.8541 4.07955 23.8541 4.71682V6.58638H24.4024V4.71682C24.4024 4.11674 24.7657 3.7026 25.3005 3.7026C25.8 3.7026 26.1128 4.06096 26.1128 4.70499V6.58638H26.6611V4.62385C26.6611 4.18435 26.5451 3.83782 26.3113 3.57919C26.0775 3.31888 25.7563 3.18871 25.356 3.18871ZM27.2111 4.9281C27.2111 5.41663 27.3727 5.83077 27.6989 6.16546C28.025 6.49846 28.4373 6.66582 28.935 6.66582C29.4344 6.66582 29.8467 6.49846 30.1728 6.16546C30.4993 5.83077 30.659 5.41663 30.659 4.9281C30.659 4.44466 30.4941 4.0356 30.1677 3.7026C29.8415 3.36113 29.4344 3.19549 28.935 3.19549C28.4373 3.19549 28.025 3.36113 27.6989 3.7026C27.3727 4.0356 27.2111 4.44466 27.2111 4.9281ZM30.1057 4.9281C30.1057 5.26788 29.9945 5.55863 29.7676 5.80035C29.5389 6.04038 29.2612 6.15871 28.935 6.15871C28.6089 6.15871 28.3328 6.04038 28.1041 5.80035C27.8772 5.55863 27.7662 5.26788 27.7662 4.9281C27.7662 4.59341 27.8772 4.30774 28.1041 4.06771C28.3328 3.82599 28.6089 3.7026 28.935 3.7026C29.2612 3.7026 29.5389 3.82599 29.7676 4.06771C29.9945 4.30774 30.1057 4.59341 30.1057 4.9281ZM32.9413 3.19549C32.4536 3.19549 32.06 3.39327 31.7587 3.78205V1.90234H31.2106V6.58638H31.7587V6.09616C32.0532 6.4748 32.4484 6.66582 32.9346 6.66582C33.4088 6.66582 33.7972 6.50016 34.1101 6.16546C34.4262 5.82571 34.5843 5.41663 34.5843 4.93319C34.5843 4.45144 34.4246 4.04235 34.1101 3.7026C33.7956 3.36113 33.4088 3.19549 32.9413 3.19549ZM32.8791 6.14688C32.5342 6.14688 32.2568 6.02855 32.0481 5.79357C31.838 5.55863 31.7336 5.26788 31.7336 4.9281C31.7336 4.58666 31.838 4.30269 32.0481 4.06771C32.2568 3.83274 32.5342 3.71444 32.8791 3.71444C33.2171 3.71444 33.4911 3.83444 33.703 4.06771C33.9166 4.2993 34.0243 4.58666 34.0243 4.9281C34.0243 5.26788 33.9185 5.55694 33.703 5.79357C33.493 6.02685 33.2171 6.14688 32.8791 6.14688ZM35.4605 2.79319C35.6827 2.79319 35.8608 2.61399 35.8608 2.3841C35.8608 2.1559 35.6827 1.98179 35.4605 1.98179C35.2201 1.98179 35.0485 2.1559 35.0485 2.3841C35.0485 2.61399 35.2201 2.79319 35.4605 2.79319ZM35.7263 3.27494H35.1782V6.58638H35.7263V3.27494Z" fill="#222222"/>
      <path d="M15.3695 1.80235H14.55V6.65412H15.3695V1.80235ZM16.5042 2.79379C16.7983 2.79379 17.0295 2.58285 17.0295 2.26643C17.0295 1.97111 16.8193 1.73906 16.5042 1.73906C16.21 1.73906 15.9579 1.95001 15.9579 2.26643C15.9789 2.56176 16.21 2.79379 16.5042 2.79379ZM16.9244 3.19459H16.0839V6.65412H16.9244V3.19459ZM19.4039 2.41409C19.5509 2.41409 19.7401 2.45628 19.9502 2.56176L20.2023 1.90782C19.8871 1.76016 19.593 1.67578 19.2778 1.67578C18.4583 1.67578 17.912 2.16096 17.912 3.02584V3.19459H17.3657V3.8907H17.912V6.65412H18.7315V3.8907H19.8031V3.19459H18.7315V3.04693C18.7315 2.62504 18.9626 2.41409 19.4039 2.41409Z" fill="#222222"/>
      <path d="M13.0581 4.92547C13.0581 5.2208 12.9531 5.47394 12.764 5.68488C12.5748 5.89583 12.2807 5.98022 11.9865 5.98022C11.6924 5.98022 11.4402 5.87474 11.2511 5.68488C11.062 5.47394 10.9779 5.2208 10.9779 4.92547C10.9779 4.63016 11.083 4.37702 11.2511 4.18716C11.4402 3.97622 11.6924 3.87074 11.9865 3.87074C12.2807 3.87074 12.5748 3.97622 12.764 4.18716C12.9531 4.37702 13.0581 4.60905 13.0581 4.92547ZM13.0371 3.51213C12.7219 3.23791 12.3437 3.11133 11.9025 3.11133C11.4192 3.11133 10.9359 3.28011 10.6207 3.61761C10.2845 3.95513 10.1375 4.39811 10.1375 4.90438C10.1375 5.43174 10.3055 5.87475 10.6207 6.21224C10.9359 6.57086 11.3982 6.73961 11.9025 6.73961C12.3647 6.73961 12.6799 6.61305 13.0371 6.33883V6.65524H13.8146V3.17463H13.0371V3.51213Z" fill="#222222"/>
      <path fill-rule="evenodd" clip-rule="evenodd" d="M4.46043 9.97781C3.78804 9.9145 3.15766 9.72467 2.56933 9.40825C1.45568 8.7965 0.594176 7.76286 0.194945 6.45497C-0.183275 5.14711 0.00583461 3.79706 0.615189 2.70012C1.41365 1.22349 2.94753 0.210947 4.58651 0H4.62852L5.04877 1.05474C5.02776 1.05474 5.00673 1.05474 5.00673 1.05474C3.61995 1.13911 2.23313 1.96181 1.56074 3.20639C1.07746 4.07128 0.951385 5.126 1.24556 6.13856C1.53973 7.17219 2.23313 7.97381 3.09462 8.43789C3.55691 8.69103 4.06121 8.83867 4.58651 8.90197C5.74216 9.00745 6.8138 8.62772 7.65428 7.95269C7.69631 7.9105 7.73832 7.88942 7.78036 7.84722L8.20061 8.90197C7.17101 9.68247 5.84724 10.1044 4.46043 9.97781ZM5.59508 2.46808H4.27131L2.5273 6.7925H3.66196L4.94372 3.43844L6.22546 6.7925H7.3601L5.59508 2.46808Z" fill="#00AF66"/>
    </g>
  </g>
  <defs>
    <clipPath id="clip0_350_13378">
      <rect width="36" height="10" fill="white"/>
    </clipPath>
  </defs>
</svg>