<svg xmlns="http://www.w3.org/2000/svg" width="44" height="44" viewBox="0 0 44 44" fill="none">
  <path d="M42 8H2C0.89543 8 0 8.89543 0 10V34C0 35.1046 0.89543 36 2 36H42C43.1046 36 44 35.1046 44 34V10C44 8.89543 43.1046 8 42 8Z" fill="white"/>
  <mask id="mask0_350_13333" style="mask-type:luminance" maskUnits="userSpaceOnUse" x="4" y="17" width="36" height="10">
    <path d="M39.5999 17.7188H4.3999V26.2809H39.5999V17.7188Z" fill="white"/>
  </mask>
  <g mask="url(#mask0_350_13333)">
    <path d="M30.4627 18.5531C30.4506 18.1995 30.1477 17.9199 29.7798 17.9199H29.0007C28.7434 17.9199 28.5054 18.0608 28.39 18.2827L26.6298 21.7075L24.8216 18.2688C24.7038 18.0539 24.4706 17.9199 24.2181 17.9199H23.4342C23.0639 17.9199 22.7609 18.2018 22.7513 18.5577L22.5686 24.7534C22.559 25.1232 22.8667 25.4282 23.2515 25.4282H23.2755C23.6458 25.4282 23.9488 25.144 23.9584 24.7858L24.0426 21.3309C24.0522 20.9588 24.0642 20.2886 24.0522 20.0968H24.0738C24.2061 20.4365 24.5066 20.9911 24.6942 21.3517L25.8051 23.3021C26.0768 23.7782 26.7861 23.7828 27.0627 23.3091L28.2144 21.1714C28.402 20.8201 28.7001 20.2147 28.8348 19.9165H28.8564C28.8564 20.2678 28.8781 20.8941 28.8901 21.3424L28.9935 24.7881C29.0031 25.144 29.3061 25.4259 29.6764 25.4259H30.0082C30.3953 25.4259 30.7055 25.1185 30.6911 24.7465L30.4627 18.5531Z" fill="#101010"/>
    <path d="M35.5143 25.6319C32.9799 25.6319 31.6069 23.7693 31.6069 21.4514C31.6069 19.1751 33.3214 17.7168 35.6249 17.7168C37.9717 17.7168 39.5996 19.004 39.5996 21.3451C39.5996 23.7184 38.0487 25.6319 35.5143 25.6319ZM35.6033 18.7729C33.9754 18.7729 33.444 20.1988 33.444 21.5161C33.444 22.8241 33.9417 24.5804 35.6249 24.5804C37.2528 24.5804 37.7601 22.7501 37.7601 21.5068C37.7601 20.2289 37.1855 18.7729 35.6033 18.7729Z" fill="#101010"/>
    <path d="M20.4933 17.9102H20.0701C19.6974 17.9102 19.3944 18.2014 19.3944 18.5619V22.4351C19.3944 23.5629 18.8414 24.1799 17.7882 24.233C16.7326 24.1799 16.1819 23.5652 16.1819 22.4351V18.5619C16.1819 18.2037 15.879 17.9102 15.5039 17.9102H15.0807C14.708 17.9102 14.4026 18.2014 14.4026 18.5619V22.4351C14.4026 22.8418 14.4507 23.2509 14.5709 23.6414C14.6743 23.9742 14.833 24.2931 15.0542 24.5704C15.2634 24.8293 15.5231 25.0442 15.8189 25.2036C16.1314 25.3723 16.4753 25.5018 16.8288 25.5503C17.3505 25.6219 17.6271 25.6104 17.9276 25.6104C18.5023 25.6081 18.8895 25.5665 19.4353 25.3631C19.4689 25.3515 19.5002 25.3377 19.5315 25.3238C19.8441 25.1921 20.1302 25.0049 20.3658 24.7646C20.6087 24.515 20.7914 24.2169 20.9189 23.8979C21.0656 23.5259 21.1377 23.1307 21.1617 22.7355C21.1665 22.6362 21.1714 22.5345 21.1714 22.4351V18.5619C21.169 18.2014 20.866 17.9102 20.4933 17.9102Z" fill="#101010"/>
    <path d="M5.14022 20.8041C4.79156 22.3109 5.54659 24.8668 7.02297 25.7427C7.04942 25.7588 7.09992 25.7843 7.06385 25.8397C6.12849 25.6618 5.22678 24.4693 4.78675 22.8124C4.69538 22.8308 4.66172 22.8886 4.62565 22.9441C4.29863 23.4571 4.34913 23.9886 4.60401 24.4901C5.15705 25.574 6.03952 26.1425 7.17446 26.2603C7.47743 26.2927 7.78762 26.2973 8.08097 26.1702C8.16994 26.1309 8.28055 26.087 8.29016 25.983C8.30459 25.8328 8.15311 25.8698 8.07856 25.8444C7.36923 25.6017 6.85466 25.1118 6.49878 24.4208C6.05154 23.5542 5.71971 22.3432 5.72693 21.3657C5.73414 20.4436 5.79425 19.9467 6.0852 19.4707C5.63075 19.778 5.26766 20.2518 5.14022 20.8041Z" fill="url(#paint0_linear_350_13333)"/>
    <path d="M10.8245 18.3827C11.1876 18.3688 11.1828 18.6993 11.113 20.5573V20.8138C10.1897 20.8138 8.59788 20.8092 7.73224 20.8069V20.8046C7.73224 19.2285 8.00877 18.5213 8.13861 18.0869C7.71301 18.1493 7.0734 18.3388 6.71993 19.0482C6.2799 19.9333 6.18372 21.2691 6.35445 22.3391C6.51314 23.342 7.05897 25.1377 8.35021 25.549C8.43918 25.5767 8.51612 25.4866 8.47044 25.4104C8.23239 25.0244 7.78034 24.0215 7.72503 21.9554C8.45601 21.9693 10.4253 21.997 11.113 21.9924V22.1681V24.8326C11.113 25.133 11.3655 25.3757 11.6781 25.3757H12.3345C12.6471 25.3757 12.8996 25.1307 12.8996 24.8326V19.388C12.9429 18.4127 12.2985 17.9043 11.6877 17.9043C11.3487 17.9043 11.0192 18.0615 10.8245 18.3827Z" fill="url(#paint1_linear_350_13333)"/>
  </g>
  <path d="M42 8.5H2C1.17157 8.5 0.5 9.17157 0.5 10V34C0.5 34.8284 1.17157 35.5 2 35.5H42C42.8284 35.5 43.5 34.8284 43.5 34V10C43.5 9.17157 42.8284 8.5 42 8.5Z" stroke="#EBEBEB"/>
  <defs>
    <linearGradient id="paint0_linear_350_13333" x1="1.92942" y1="18.7042" x2="8.44486" y2="25.7284" gradientUnits="userSpaceOnUse">
      <stop stop-color="#A58C30"/>
      <stop offset="0.2783" stop-color="#A58C30"/>
      <stop offset="0.5912" stop-color="#FFECA6"/>
      <stop offset="0.8284" stop-color="#BFA64B"/>
      <stop offset="1" stop-color="#BFA64B"/>
    </linearGradient>
    <linearGradient id="paint1_linear_350_13333" x1="4.59327" y1="16.2337" x2="11.1087" y2="23.2579" gradientUnits="userSpaceOnUse">
      <stop stop-color="#A58C30"/>
      <stop offset="0.2783" stop-color="#A58C30"/>
      <stop offset="0.5912" stop-color="#FFECA6"/>
      <stop offset="0.8284" stop-color="#BFA64B"/>
      <stop offset="1" stop-color="#BFA64B"/>
    </linearGradient>
  </defs>
</svg>