<svg xmlns="http://www.w3.org/2000/svg" width="44" height="44" viewBox="0 0 44 44" fill="none">
  <g clip-path="url(#clip0_350_13317)">
    <mask id="mask0_350_13317" style="mask-type:luminance" maskUnits="userSpaceOnUse" x="0" y="0" width="44" height="44">
      <path d="M44 0H0V44H44V0Z" fill="white"/>
    </mask>
    <g mask="url(#mask0_350_13317)">
      <path d="M42 8H2C0.89543 8 0 8.89543 0 10V34C0 35.1046 0.89543 36 2 36H42C43.1046 36 44 35.1046 44 34V10C44 8.89543 43.1046 8 42 8Z" fill="white"/>
      <path d="M42 8.5H2C1.17157 8.5 0.5 9.17157 0.5 10V34C0.5 34.8284 1.17157 35.5 2 35.5H42C42.8284 35.5 43.5 34.8284 43.5 34V10C43.5 9.17157 42.8284 8.5 42 8.5Z" stroke="#EBEBEB"/>
      <path d="M24.75 17.3164H18.75V26.6914H24.75V17.3164Z" fill="#FF5F00"/>
      <path fill-rule="evenodd" clip-rule="evenodd" d="M21.75 17.316C20.3783 18.4156 19.5 20.1052 19.5 22C19.5 23.8948 20.3783 25.5844 21.75 26.684C20.7228 27.5075 19.4189 28 18 28C14.6863 28 12 25.3137 12 22C12 18.6863 14.6863 16 18 16C19.4189 16 20.7228 16.4925 21.75 17.316Z" fill="#EB001B"/>
      <path fill-rule="evenodd" clip-rule="evenodd" d="M21.75 17.316C23.1217 18.4156 24 20.1052 24 22C24 23.8948 23.1217 25.5844 21.75 26.684C22.7772 27.5075 24.0811 28 25.5 28C28.8137 28 31.5 25.3137 31.5 22C31.5 18.6863 28.8137 16 25.5 16C24.0811 16 22.7772 16.4925 21.75 17.316Z" fill="#F79E1B"/>
    </g>
  </g>
  <defs>
    <clipPath id="clip0_350_13317">
      <rect width="44" height="44" fill="white"/>
    </clipPath>
  </defs>
</svg>