<svg xmlns="http://www.w3.org/2000/svg" width="28" height="10" viewBox="0 0 28 10" fill="none">
  <g clip-path="url(#clip0_350_13366)">
    <path d="M1.76539 0.000739246H24.5115C24.7736 0.000739246 25.0048 0.119732 25.1359 0.34885L27.4415 4.46704C27.6188 4.78967 27.5883 5.1799 27.3335 5.50287L24.0874 9.62108C23.9101 9.84171 23.6789 9.97769 23.4161 9.97769H0.738566C0.28388 9.97769 -0.0479907 9.58708 0.00569931 9.09448L0.862389 0.88321C0.91675 0.382479 1.30969 0 1.76472 0H1.76505L1.76539 0.000739246Z" fill="#00C0C9"/>
    <path d="M13.4859 2.78148L12.3054 5.7408L11.692 2.78148H10.4803L11.5598 7.06634L10.9309 8.46913H12.1269L14.6664 2.78148H13.4856H13.4859ZM2.05396 8.46913H3.14119L3.31971 6.85311C3.49051 6.99834 3.80895 7.16094 4.21264 7.16094C5.471 7.16094 6.23977 5.93776 6.23977 4.60407C6.23977 3.46661 5.75052 2.67136 4.83409 2.67136C4.39888 2.67136 4.00291 2.82509 3.70022 3.09928L3.73882 2.78296H2.6828L2.05396 8.47061V8.46951V8.46913ZM3.413 6.01426L3.65393 3.91044C3.8868 3.70534 4.15089 3.61961 4.38376 3.62811C4.84953 3.63623 5.1059 4.04717 5.1059 4.68869C5.1059 5.51832 4.70994 6.22821 4.04184 6.22821C3.83211 6.22821 3.59151 6.15136 3.413 6.01426ZM6.4495 5.90338C6.44144 6.59592 6.95452 7.16094 7.73839 7.16094C8.29005 7.16094 8.6934 6.90448 8.92627 6.62215L8.87964 7.05821H9.93565L10.192 4.7408C10.3165 3.59484 9.97457 2.66248 8.6387 2.66248C8.09509 2.66248 7.43504 2.79959 7.07767 3.05605L6.9686 4.0139C7.25619 3.84244 7.81524 3.63403 8.32764 3.63403C8.94105 3.63403 9.15882 3.97105 9.13533 4.33061H8.483C7.53537 4.33061 6.45588 4.7323 6.44816 5.90413H6.44916L6.4495 5.90338ZM7.54477 5.80878C7.54477 5.34686 8.03402 5.17576 8.53836 5.17576H9.05078L8.97293 5.86828C8.75547 6.05638 8.36724 6.25298 8.04073 6.25298C7.74577 6.25298 7.54375 6.07338 7.54375 5.80805H7.54409L7.54477 5.80878ZM20.8776 5.09888C20.8623 6.16798 21.5689 7.15984 23.0132 7.15984C23.5255 7.15984 23.9609 7.04861 24.3487 6.78328L24.4266 5.77405C24.1084 5.98801 23.6266 6.13323 23.2075 6.13323C22.6558 6.13323 22.1588 5.86792 22.0196 5.25226H24.7068C24.7454 5.14103 24.7766 4.87569 24.7766 4.61921C24.7766 3.49063 24.2094 2.66913 23.0444 2.66913C21.8794 2.66913 20.8932 3.4304 20.8776 5.09778V5.09853V5.09888ZM22.027 4.52573C22.1359 3.96142 22.5081 3.62736 22.9665 3.62736C23.4249 3.62736 23.6733 3.90969 23.6733 4.36313C23.6733 4.41448 23.6733 4.47436 23.6659 4.52573H22.0273H22.027ZM15.5516 7.05746L15.909 3.92744C16.1499 3.74784 16.4214 3.60261 16.655 3.60261C16.9576 3.60261 17.1053 3.85094 17.059 4.27813L16.7482 7.05784H17.8435L18.1855 4.02167L18.1928 3.93594C18.4338 3.75634 18.7133 3.60261 18.9462 3.60261C19.2489 3.60261 19.3965 3.85094 19.3501 4.27813L19.0395 7.05784H20.1347L20.4767 4.02167C20.57 3.17505 20.1737 2.66211 19.4672 2.66211C18.978 2.66211 18.4576 2.96994 18.1083 3.25228C17.9606 2.87571 17.6345 2.66211 17.1761 2.66211C16.7177 2.66211 16.2751 2.91044 15.9258 3.16692L15.9724 2.78221H14.9476L14.4584 7.05859H15.5536H15.5523L15.5516 7.05746Z" fill="white"/>
  </g>
  <defs>
    <clipPath id="clip0_350_13366">
      <rect width="28" height="10" fill="white"/>
    </clipPath>
  </defs>
</svg>