<svg xmlns="http://www.w3.org/2000/svg" width="35" height="10" viewBox="0 0 35 10" fill="none">
  <g clip-path="url(#clip0_350_13370)">
    <path d="M6.38723 4.55422C6.38723 2.89673 5.31689 1.61328 3.75912 1.61328C3.01312 1.61328 2.39331 1.88262 1.9545 2.35152V2.12252C1.9545 1.87172 1.81188 1.74231 1.55956 1.74231H0.616126C0.363805 1.74231 0.221191 1.87172 0.221191 2.12252V9.60693C0.221191 9.85773 0.363805 10.0004 0.616126 10.0004H1.55956C1.81188 10.0004 1.9545 9.85773 1.9545 9.60693V6.75691C2.39331 7.22581 3.01312 7.54876 3.75912 7.54876C5.31689 7.54876 6.38723 6.2117 6.38723 4.55422ZM4.68062 4.55422C4.68062 5.36115 4.08274 5.9718 3.32031 5.9718C2.55786 5.9718 1.9545 5.36115 1.9545 4.55422C1.9545 3.75273 2.55786 3.13664 3.32031 3.13664C4.08274 3.13664 4.68062 3.75273 4.68062 4.55422Z" fill="black"/>
    <path d="M6.71191 4.55422C6.71191 6.2117 7.80913 7.54877 9.37232 7.54877C10.1184 7.54877 10.7327 7.22581 11.177 6.75691V6.98591C11.177 7.23672 11.3196 7.41973 11.572 7.41973H12.4831C12.7354 7.41973 12.878 7.23672 12.878 6.98591V2.12252C12.878 1.87172 12.7354 1.74231 12.4831 1.74231H11.572C11.3196 1.74231 11.177 1.87172 11.177 2.12252V2.35152C10.7327 1.88262 10.1184 1.61328 9.37232 1.61328C7.80913 1.61328 6.71191 2.89673 6.71191 4.55422ZM8.45082 4.55422C8.45082 3.75273 9.04325 3.13664 9.80572 3.13664C10.5737 3.13664 11.177 3.75273 11.177 4.55422C11.177 5.36115 10.5737 5.9718 9.80572 5.9718C9.04325 5.9718 8.45082 5.36115 8.45082 4.55422Z" fill="black"/>
    <path d="M14.5694 10.0003H15.5895C15.8144 10.0003 15.9626 10.0003 16.0393 9.68314L18.6864 2.18236C18.7091 2.11864 18.7196 2.07149 18.7196 2.00849C18.7196 1.83386 18.6055 1.74219 18.3815 1.74219H17.3722C17.1419 1.74219 16.9938 1.83888 16.9279 2.05696L15.9626 5.15383L15.0137 2.05696C14.9478 1.83888 14.7996 1.74219 14.5694 1.74219H13.5601C13.3333 1.74219 13.2026 1.83632 13.2026 2.0147C13.2026 2.07149 13.2146 2.12117 13.2364 2.18236L15.1068 7.41961L14.2622 9.54138C14.1525 9.81945 14.2731 10.0003 14.5694 10.0003Z" fill="black"/>
    <path d="M22.4113 1.61328C21.764 1.61328 21.1886 1.86081 20.8047 2.32425V2.12252C20.8047 1.87172 20.662 1.74231 20.4097 1.74231H19.4387C19.1864 1.74231 19.0439 1.87172 19.0439 2.12252V6.98591C19.0439 7.23672 19.1864 7.41973 19.4387 7.41973H20.4097C20.662 7.41973 20.8047 7.23672 20.8047 6.98591V4.32522C20.8047 3.55101 21.3142 3.13664 21.8847 3.13664C22.3949 3.13664 22.8007 3.60552 22.8007 4.11259V6.98591C22.8007 7.23672 22.9433 7.41973 23.1956 7.41973H24.1665C24.4188 7.41973 24.5609 7.23672 24.5609 6.98591V3.83452C24.5609 2.49873 23.6565 1.61328 22.4113 1.61328Z" fill="black"/>
    <path d="M33.7014 5.33352V3.24532H34.5404C34.7926 3.24532 34.9461 3.10356 34.9461 2.85276V2.12216C34.9461 1.87135 34.7926 1.74195 34.5404 1.74195H33.7014V0.362814C33.7014 0.141949 33.5717 0.00196869 33.3587 2.06061e-05C33.3316 -0.000227361 33.303 0.00176108 33.2733 0.0060705L32.2915 0.144725C32.0502 0.18289 31.9294 0.324648 31.9294 0.564547V1.74195H31.4736C31.2213 1.74195 31.0518 1.87135 31.0518 2.12216V2.85276C31.0518 3.10356 31.2213 3.24532 31.4736 3.24532H31.9294V5.51345C31.9294 6.77835 32.6754 7.5484 33.8876 7.5484C34.1838 7.5484 34.469 7.50116 34.7103 7.41937C34.9188 7.3485 34.9461 7.14911 34.9461 6.93103V6.36945C34.9461 6.10774 34.8585 5.98234 34.5953 5.99324H34.4252C33.904 5.99324 33.7014 5.78606 33.7014 5.33352Z" fill="black"/>
    <path d="M26.6843 5.03948H30.6088C30.8447 5.03948 31.0102 4.92497 31.0321 4.69052C31.0432 4.6142 31.0518 4.53241 31.0518 4.46154C31.0518 2.87494 29.7725 1.61328 28.0337 1.61328C26.2619 1.61328 24.8857 2.89675 24.8857 4.55422C24.8857 6.2117 26.2291 7.54877 28.1927 7.54877C29.202 7.54877 29.9805 7.14404 30.5619 6.60427C30.7483 6.4298 30.7375 6.23351 30.5728 6.04814L30.337 5.78643C30.1725 5.60106 29.9914 5.5956 29.783 5.73736C29.3441 6.04269 28.8236 6.18989 28.2148 6.18989C27.37 6.18989 26.8105 5.75372 26.6843 5.03948ZM28.0118 2.91856C28.6645 2.91856 29.1413 3.31112 29.2784 3.93267H26.7117C26.8818 3.30022 27.37 2.91856 28.0118 2.91856Z" fill="black"/>
  </g>
  <defs>
    <clipPath id="clip0_350_13370">
      <rect width="35" height="10" fill="white"/>
    </clipPath>
  </defs>
</svg>