<svg xmlns="http://www.w3.org/2000/svg" width="44" height="44" viewBox="0 0 44 44" fill="none">
  <path d="M42 8H2C0.89543 8 0 8.89543 0 10V34C0 35.1046 0.89543 36 2 36H42C43.1046 36 44 35.1046 44 34V10C44 8.89543 43.1046 8 42 8Z" fill="white"/>
  <path d="M42 8.5H2C1.17157 8.5 0.5 9.17157 0.5 10V34C0.5 34.8284 1.17157 35.5 2 35.5H42C42.8284 35.5 43.5 34.8284 43.5 34V10C43.5 9.17157 42.8284 8.5 42 8.5Z" stroke="#EBEBEB"/>
  <path d="M26.0425 14.3383C26.0425 14.3259 26.0425 14.3132 26.0429 14.3008H28.4347C28.6256 14.3008 28.7805 14.4499 28.7805 14.6343L28.7843 16.9575C28.7746 16.9578 28.7649 16.9578 28.7552 16.9578C27.2596 16.9578 26.0425 15.7825 26.0425 14.3383Z" fill="#F4821F"/>
  <path d="M28.7891 20.3481H24.1545L24.1455 14.6351C24.1455 14.4506 24.3003 14.3008 24.4913 14.3008H25.1086C25.1082 14.3132 25.1082 14.3259 25.1082 14.3383C25.1082 16.2799 26.7438 17.8593 28.7544 17.8593C28.7645 17.8593 28.7747 17.8593 28.7848 17.8589L28.7891 20.3481Z" fill="#203E7A"/>
  <path d="M28.7942 23.137C28.7996 26.7568 25.7652 29.6956 22.0167 29.7008C18.2682 29.7061 15.2249 26.7759 15.2194 23.1562L15.2058 14.6351C15.2058 14.4507 15.3606 14.3008 15.5516 14.3008H19.5001C19.6911 14.3008 19.8459 14.4499 19.8459 14.6344L19.8595 23.5235C19.8614 24.6703 20.8253 25.5984 22.0128 25.5969C23.2004 25.595 24.1615 24.6643 24.16 23.5175L24.1565 21.2496H28.7911L28.7942 23.137Z" fill="#203E7A"/>
</svg>