<svg xmlns="http://www.w3.org/2000/svg" width="20" height="20" viewBox="0 0 20 20" fill="none">
  <g clip-path="url(#clip0_350_13359)">
    <path d="M19.9532 10C19.9532 10.6779 19.8857 11.3426 19.7553 11.9834C19.7379 12.0772 19.7183 12.1665 19.6966 12.2581C19.6792 12.3387 19.6596 12.4194 19.6379 12.5C19.5574 12.8182 19.4595 13.1321 19.3465 13.4394C19.2921 13.592 19.2312 13.7424 19.1682 13.8928C19.1051 14.041 19.0399 14.1892 18.9681 14.3352C18.9159 14.4442 18.8616 14.5532 18.805 14.66C18.6376 14.9804 18.4506 15.2921 18.2484 15.5907C18.1592 15.7236 18.0657 15.8544 17.97 15.983C17.8265 16.1748 17.6765 16.3622 17.5177 16.5432C17.3633 16.7241 17.1981 16.9006 17.0285 17.0706C15.5411 18.5636 13.5884 19.5837 11.4052 19.8976C10.9377 19.9651 10.4615 20 9.97658 20C6.06466 20 2.67898 17.7441 1.04593 14.4573C0.376187 13.1146 0 11.602 0 10C0 4.79294 3.97063 0.516565 9.04155 0.043592C9.34815 0.0152572 9.66128 0 9.97658 0C12.7295 0 15.2236 1.11813 17.0285 2.92938C17.1981 3.09939 17.3633 3.27594 17.5177 3.45684C17.6765 3.63775 17.8265 3.8252 17.97 4.017C18.0657 4.1456 18.1592 4.27637 18.2484 4.40933C18.4506 4.70793 18.6376 5.01962 18.805 5.34002C18.8616 5.44682 18.9159 5.5558 18.9681 5.66478C18.9964 5.72145 19.0225 5.77812 19.0486 5.83697C19.0899 5.92633 19.1312 6.01569 19.1682 6.10724C19.2312 6.25763 19.2921 6.40802 19.3465 6.56059C19.4595 6.86792 19.5574 7.18178 19.6379 7.5C19.6596 7.58065 19.6792 7.66129 19.6966 7.74194C19.7183 7.83348 19.7379 7.92284 19.7553 8.01656C19.8857 8.65737 19.9532 9.32214 19.9532 10Z" fill="#A6FC6F"/>
    <path d="M17.4833 12.0482C17.6311 12.5059 17.6311 12.9964 17.4833 13.454C17.3158 13.9727 16.8657 14.4219 15.9676 15.322L12.1624 19.1406C11.6949 19.2081 10.2236 19.2756 9.73871 19.2756C5.8268 19.2756 3.34471 17.0783 1.71167 13.7917L4.33844 11.1567L3.71219 10.529C2.81412 9.62891 2.36618 9.17762 2.19657 8.65892C2.0487 8.20342 2.0487 7.71076 2.19657 7.25526C2.36618 6.73438 2.81412 6.28526 3.71219 5.38516L8.38719 0.698126C8.69379 0.669793 11.3567 1.35066 11.672 1.35066C14.425 1.35066 14.9493 1.76789 15.5541 2.51225C15.5541 3.59978 16.5317 3.64948 16.6861 3.83037C16.8622 5.26524 16.8372 3.79365 16.9808 3.98544C17.0764 4.11403 17.4662 4.89582 17.5553 5.02876C17.7576 5.32735 17.8703 5.06479 18.0378 5.38516C18.0943 5.49196 17.8256 5.75823 17.8778 5.86721C17.3077 5.86721 18.8119 5.98892 18.838 6.04776L15.3414 9.55255L15.9676 10.1803C16.8657 11.0804 17.3158 11.5295 17.4833 12.0482Z" fill="#7000FF"/>
    <path d="M12.81 6.93945C13.1101 7.00484 13.4015 7.06151 13.6863 7.13561C13.9886 7.2119 14.2908 7.3078 14.5909 7.39063C14.6344 7.4037 14.6496 7.41896 14.6496 7.46909C14.6496 8.41068 14.6583 9.35227 14.6453 10.2938C14.6322 11.3052 14.3126 12.2206 13.6994 13.0249C13.0166 13.9207 12.1207 14.4983 11.0269 14.762C10.5964 14.8666 10.155 14.8993 9.71354 14.8732C8.66108 14.81 7.7304 14.4394 6.93236 13.7507C6.1104 13.0423 5.59287 12.1487 5.38412 11.0785C5.32541 10.7755 5.30149 10.466 5.30149 10.1565C5.30149 9.26508 5.30149 8.3758 5.29932 7.48435C5.29932 7.4255 5.31889 7.4037 5.37325 7.38845C5.94732 7.20536 6.53225 7.05933 7.12372 6.95253C7.13024 6.95253 7.13459 6.95253 7.14764 6.95253V7.02227C7.14764 8.14041 7.14329 9.25854 7.14981 10.3766C7.15416 10.9412 7.23027 11.497 7.42162 12.0331C7.57384 12.4582 7.79781 12.8352 8.13268 13.1426C8.44798 13.4281 8.81547 13.609 9.22645 13.6984C9.80922 13.8248 10.392 13.8139 10.9639 13.633C11.6401 13.4194 12.1077 12.9704 12.4077 12.3361C12.5686 11.9983 12.6665 11.6386 12.7252 11.2703C12.7926 10.8605 12.81 10.4464 12.81 10.0301V7.03535C12.81 7.0092 12.81 6.98522 12.81 6.94381V6.93945Z" fill="white"/>
    <path d="M10.796 9.0136H9.1543V5.16225C9.32608 5.10776 10.4699 5.1034 10.796 5.15789V9.0136Z" fill="white"/>
    <path d="M19.9532 10C19.9532 15.5228 15.4865 20 9.97658 20C4.46667 20 0 15.5228 0 10C0 4.47715 4.46667 0 9.97658 0C15.4865 0 19.9532 4.47715 19.9532 10ZM1.33301 10C1.33301 14.7849 5.20287 18.6639 9.97658 18.6639C14.7503 18.6639 18.6201 14.7849 18.6201 10C18.6201 5.21508 14.7503 1.33614 9.97658 1.33614C5.20287 1.33614 1.33301 5.21508 1.33301 10Z" fill="#A6FC6F"/>
  </g>
  <defs>
    <clipPath id="clip0_350_13359">
      <rect width="20" height="20" fill="white"/>
    </clipPath>
  </defs>
</svg>