<svg xmlns="http://www.w3.org/2000/svg" width="44" height="44" viewBox="0 0 44 44" fill="none">
  <path d="M42 8H2C0.89543 8 0 8.89543 0 10V34C0 35.1046 0.89543 36 2 36H42C43.1046 36 44 35.1046 44 34V10C44 8.89543 43.1046 8 42 8Z" fill="white"/>
  <path d="M42 8.5H2C1.17157 8.5 0.5 9.17157 0.5 10V34C0.5 34.8284 1.17157 35.5 2 35.5H42C42.8284 35.5 43.5 34.8284 43.5 34V10C43.5 9.17157 42.8284 8.5 42 8.5Z" stroke="#EBEBEB"/>
  <path d="M21.2291 17.2256L19.1809 26.8005H16.7036L18.7518 17.2256H21.2291ZM31.6501 23.4082L32.9545 19.8125L33.7038 23.4082H31.6501ZM34.4153 26.8005H36.7056L34.7046 17.2256H32.5914C32.1148 17.2256 31.7143 17.5022 31.5366 17.9275L27.8196 26.8005H30.4209L30.9369 25.3702H34.1151L34.4153 26.8005ZM27.9487 23.6744C27.9591 21.1478 24.4552 21.0076 24.4781 19.8786C24.4865 19.5355 24.8134 19.1701 25.529 19.0767C25.8835 19.0309 26.8628 18.9943 27.972 19.5054L28.406 17.4738C27.81 17.2583 27.0431 17.0508 26.089 17.0508C23.6402 17.0508 21.9175 18.3515 21.9038 20.2155C21.8877 21.5943 23.1342 22.3627 24.0716 22.8219C25.0372 23.2909 25.3609 23.5924 25.3564 24.0114C25.3496 24.6538 24.5854 24.9382 23.8749 24.9488C22.629 24.9686 21.9067 24.6121 21.3307 24.3438L20.8811 26.4427C21.4606 26.7083 22.5288 26.9391 23.6351 26.9508C26.2384 26.9508 27.9411 25.665 27.9487 23.6744ZM17.6892 17.2256L13.6758 26.8005H11.0572L9.08202 19.1589C8.96242 18.6893 8.85829 18.5165 8.49383 18.318C7.8982 17.9945 6.91462 17.6919 6.05005 17.5036L6.10838 17.2256H10.324C10.8605 17.2256 11.3436 17.5828 11.4663 18.2014L12.51 23.7425L15.0865 17.2256H17.6892Z" fill="#1434CB"/>
</svg>